<svg xmlns="http://www.w3.org/2000/svg" width="9" height="8" viewBox="0 0 9 8">
    <defs>
        <filter id="qei6prabwa">
            <feColorMatrix in="SourceGraphic" values="0 0 0 0 1.000000 0 0 0 0 0.831373 0 0 0 0 0.886275 0 0 0 1.000000 0"/>
        </filter>
    </defs>
    <g fill="none" fill-rule="evenodd">
        <g>
            <g>
                <g>
                    <g>
                        <g>
                            <g>
                                <g filter="url(#qei6prabwa)" transform="translate(-577 -881) translate(418 492) translate(24 167) translate(127 91) translate(0 51) translate(0 51) translate(8.5 23)">
                                    <g fill="#FFD4E2" fill-rule="nonzero">
                                        <path d="M3.586 3.996c.227-.217.595-.217.822 0l2.678 2.55c.227.216.227.566 0 .783-.228.217-.595.217-.823 0L4 5.174 1.737 7.329c-.228.217-.601.211-.829 0-.227-.216-.227-.566 0-.783zm0-3.102c.227-.216.595-.216.822 0l2.678 2.55c.227.217.227.567 0 .784-.228.216-.595.216-.823 0L4 2.072 1.737 4.228c-.228.216-.601.21-.829 0-.227-.217-.227-.567 0-.784z" transform="translate(0 6) matrix(1 0 0 -1 0 8.224)"/>
                                    </g>
                                </g>
                            </g>
                        </g>
                    </g>
                </g>
            </g>
        </g>
    </g>
</svg>
