<svg xmlns="http://www.w3.org/2000/svg" width="16" height="16" viewBox="0 0 16 16">
    <g fill="none" fill-rule="evenodd">
        <g fill="#11B958" fill-rule="nonzero">
            <g>
                <g>
                    <g>
                        <path d="M7.172 7.992c.455-.434 1.19-.434 1.645 0l5.355 5.1c.455.433.455 1.133 0 1.566-.455.434-1.19.434-1.645 0L8 10.348l-4.527 4.31c-.455.434-1.201.423-1.656 0-.455-.433-.455-1.133 0-1.566zm0-6.203c.455-.433 1.19-.433 1.645 0l5.355 5.1c.455.433.455 1.133 0 1.567-.455.433-1.19.433-1.645 0L8 4.144 3.473 8.456c-.455.433-1.201.422-1.656 0-.455-.434-.455-1.134 0-1.567z" transform="translate(-457 -624) translate(418 492) translate(24 97) translate(15 35) matrix(1 0 0 -1 0 16.447)"/>
                    </g>
                </g>
            </g>
        </g>
    </g>
</svg>
